<svg width="15" height="14" viewBox="0 0 15 14" fill="none" xmlns="http://www.w3.org/2000/svg">
<path d="M1.29702 13.25C0.962084 13.25 0.72186 12.9271 0.818102 12.6063L1.4556 10.4813C1.51905 10.2698 1.71371 10.125 1.93452 10.125H5.56549C5.78629 10.125 5.98095 10.2698 6.0444 10.4813L6.6819 12.6063C6.77814 12.9271 6.53792 13.25 6.20299 13.25H1.29702ZM8.79702 13.25C8.46209 13.25 8.22186 12.9271 8.3181 12.6063L8.9556 10.4813C9.01905 10.2698 9.21371 10.125 9.43452 10.125H13.0655C13.2863 10.125 13.481 10.2698 13.5444 10.4813L14.1819 12.6063C14.2781 12.9271 14.0379 13.25 13.703 13.25H8.79702ZM4.42202 8.875C4.08708 8.875 3.84686 8.55213 3.9431 8.23132L4.5806 6.10632C4.64405 5.89483 4.83871 5.75 5.05952 5.75H8.69049C8.91129 5.75 9.10595 5.89483 9.1694 6.10632L9.8069 8.23132C9.90314 8.55213 9.66292 8.875 9.32799 8.875H4.42202ZM13.6934 3.08878C13.8876 3.14361 13.8876 3.41888 13.6934 3.47372L12.0702 3.93208C12.0033 3.95098 11.951 4.00328 11.9321 4.07021L11.4737 5.6934C11.4189 5.88759 11.1436 5.88759 11.0888 5.6934L10.6304 4.07021C10.6115 4.00328 10.5592 3.95098 10.4923 3.93208L8.8691 3.47372C8.6749 3.41888 8.6749 3.14361 8.8691 3.08878L10.4923 2.63041C10.5592 2.61152 10.6115 2.55921 10.6304 2.49229L11.0888 0.869102C11.1436 0.674903 11.4189 0.674904 11.4737 0.869102L11.9321 2.49229C11.951 2.55921 12.0033 2.61152 12.0702 2.63041L13.6934 3.08878Z" fill="#294166"/>
</svg>
